solid OpenSCAD_Model
  facet normal 0 0.952424 -0.304776
    outer loop
      vertex 6.4 18 0
      vertex 0 20 6.25
      vertex 6.4 20 6.25
    endloop
  endfacet
  facet normal 0 0.952424 -0.304776
    outer loop
      vertex 0 20 6.25
      vertex 6.4 18 0
      vertex 0 18 0
    endloop
  endfacet
  facet normal 0 0 1
    outer loop
      vertex 7.9 19.5 0
      vertex 6.4 18 0
      vertex 7.9 0.5 0
    endloop
  endfacet
  facet normal 0 0 1
    outer loop
      vertex 7.9 19.5 0
      vertex 0 18 0
      vertex 6.4 18 0
    endloop
  endfacet
  facet normal 0 0 1
    outer loop
      vertex 0 18 0
      vertex -1.5 19.5 0
      vertex 0 2 0
    endloop
  endfacet
  facet normal -0 0 1
    outer loop
      vertex -1.5 19.5 0
      vertex 0 18 0
      vertex 7.9 19.5 0
    endloop
  endfacet
  facet normal -0 0 1
    outer loop
      vertex 6.4 2 0
      vertex 7.9 0.5 0
      vertex 6.4 18 0
    endloop
  endfacet
  facet normal -0 0 1
    outer loop
      vertex 0 2 0
      vertex 7.9 0.5 0
      vertex 6.4 2 0
    endloop
  endfacet
  facet normal 0 0 1
    outer loop
      vertex 0 2 0
      vertex -1.5 0.5 0
      vertex 7.9 0.5 0
    endloop
  endfacet
  facet normal 0 0 1
    outer loop
      vertex -1.5 0.5 0
      vertex 0 2 0
      vertex -1.5 19.5 0
    endloop
  endfacet
  facet normal -0 0 1
    outer loop
      vertex 0 20 6.25
      vertex 6.4 0 6.25
      vertex 6.4 20 6.25
    endloop
  endfacet
  facet normal 0 0 1
    outer loop
      vertex 6.4 0 6.25
      vertex 0 20 6.25
      vertex 0 0 6.25
    endloop
  endfacet
  facet normal -1 0 0
    outer loop
      vertex 0 18 0
      vertex 0 3.75 0.75
      vertex 0 16.25 0.75
    endloop
  endfacet
  facet normal -1 -0 0
    outer loop
      vertex 0 3.75 0.75
      vertex 0 2 0
      vertex 0 3.75 4.5
    endloop
  endfacet
  facet normal -1 0 0
    outer loop
      vertex 0 2 0
      vertex 0 3.75 0.75
      vertex 0 18 0
    endloop
  endfacet
  facet normal -1 0 0
    outer loop
      vertex 0 16.25 4.5
      vertex 0 18 0
      vertex 0 16.25 0.75
    endloop
  endfacet
  facet normal -1 0 0
    outer loop
      vertex 0 18 0
      vertex 0 16.25 4.5
      vertex 0 20 6.25
    endloop
  endfacet
  facet normal -1 0 0
    outer loop
      vertex 0 3.75 4.5
      vertex 0 20 6.25
      vertex 0 16.25 4.5
    endloop
  endfacet
  facet normal -1 0 0
    outer loop
      vertex 0 3.75 4.5
      vertex 0 0 6.25
      vertex 0 20 6.25
    endloop
  endfacet
  facet normal -1 0 0
    outer loop
      vertex 0 0 6.25
      vertex 0 3.75 4.5
      vertex 0 2 0
    endloop
  endfacet
  facet normal 0 -0.952424 -0.304776
    outer loop
      vertex 0 2 0
      vertex 6.4 0 6.25
      vertex 0 0 6.25
    endloop
  endfacet
  facet normal 0 -0.952424 -0.304776
    outer loop
      vertex 6.4 0 6.25
      vertex 0 2 0
      vertex 6.4 2 0
    endloop
  endfacet
  facet normal 1 0 0
    outer loop
      vertex 6.4 20 6.25
      vertex 6.4 16.25 4.5
      vertex 6.4 18 0
    endloop
  endfacet
  facet normal 1 0 0
    outer loop
      vertex 6.4 20 6.25
      vertex 6.4 3.75 4.5
      vertex 6.4 16.25 4.5
    endloop
  endfacet
  facet normal 1 0 0
    outer loop
      vertex 6.4 3.75 4.5
      vertex 6.4 2 0
      vertex 6.4 3.75 0.75
    endloop
  endfacet
  facet normal 1 0 0
    outer loop
      vertex 6.4 3.75 4.5
      vertex 6.4 0 6.25
      vertex 6.4 2 0
    endloop
  endfacet
  facet normal 1 -0 0
    outer loop
      vertex 6.4 0 6.25
      vertex 6.4 3.75 4.5
      vertex 6.4 20 6.25
    endloop
  endfacet
  facet normal 1 -0 0
    outer loop
      vertex 6.4 16.25 0.75
      vertex 6.4 18 0
      vertex 6.4 16.25 4.5
    endloop
  endfacet
  facet normal 1 -0 0
    outer loop
      vertex 6.4 3.75 0.75
      vertex 6.4 18 0
      vertex 6.4 16.25 0.75
    endloop
  endfacet
  facet normal 1 0 0
    outer loop
      vertex 6.4 18 0
      vertex 6.4 3.75 0.75
      vertex 6.4 2 0
    endloop
  endfacet
  facet normal 1 -0 0
    outer loop
      vertex 7.9 0.5 0
      vertex 7.9 19.5 -8
      vertex 7.9 19.5 0
    endloop
  endfacet
  facet normal 1 0 0
    outer loop
      vertex 7.9 19.5 -8
      vertex 7.9 0.5 0
      vertex 7.9 0.5 -8
    endloop
  endfacet
  facet normal 0 0 -1
    outer loop
      vertex 7.9 0.5 -8
      vertex 5.33235 5.36765 -8
      vertex 7.9 19.5 -8
    endloop
  endfacet
  facet normal 0 0 -1
    outer loop
      vertex 7.9 0.5 -8
      vertex 5.23216 4.73507 -8
      vertex 5.33235 5.36765 -8
    endloop
  endfacet
  facet normal 0 0 -1
    outer loop
      vertex 7.9 0.5 -8
      vertex 5.22799 4.70871 -8
      vertex 5.23216 4.73507 -8
    endloop
  endfacet
  facet normal 0 0 -1
    outer loop
      vertex 7.9 0.5 -8
      vertex 5.21587 4.68494 -8
      vertex 5.22799 4.70871 -8
    endloop
  endfacet
  facet normal 0 0 -1
    outer loop
      vertex 7.9 0.5 -8
      vertex 4.92511 4.11428 -8
      vertex 5.21587 4.68494 -8
    endloop
  endfacet
  facet normal 0 0 -1
    outer loop
      vertex 7.9 0.5 -8
      vertex 4.90624 4.09541 -8
      vertex 4.92511 4.11428 -8
    endloop
  endfacet
  facet normal 0 0 -1
    outer loop
      vertex 7.9 0.5 -8
      vertex 4.45337 3.64254 -8
      vertex 4.90624 4.09541 -8
    endloop
  endfacet
  facet normal 0 0 -1
    outer loop
      vertex 7.9 0.5 -8
      vertex 4.42959 3.63042 -8
      vertex 4.45337 3.64254 -8
    endloop
  endfacet
  facet normal 0 0 -1
    outer loop
      vertex 7.9 0.5 -8
      vertex 3.85893 3.33966 -8
      vertex 4.42959 3.63042 -8
    endloop
  endfacet
  facet normal 0 0 -1
    outer loop
      vertex 7.9 0.5 -8
      vertex 3.22636 3.23947 -8
      vertex 3.85893 3.33966 -8
    endloop
  endfacet
  facet normal 0 0 -1
    outer loop
      vertex 7.9 0.5 -8
      vertex 3.2 3.23529 -8
      vertex 3.22636 3.23947 -8
    endloop
  endfacet
  facet normal 0 0 -1
    outer loop
      vertex -1.5 0.5 -8
      vertex 3.2 3.23529 -8
      vertex 7.9 0.5 -8
    endloop
  endfacet
  facet normal -0 0 -1
    outer loop
      vertex 3.2 3.23529 -8
      vertex -1.5 0.5 -8
      vertex 3.17364 3.23947 -8
    endloop
  endfacet
  facet normal -0 0 -1
    outer loop
      vertex 3.17364 3.23947 -8
      vertex -1.5 0.5 -8
      vertex 2.54107 3.33966 -8
    endloop
  endfacet
  facet normal -0 0 -1
    outer loop
      vertex 2.54107 3.33966 -8
      vertex -1.5 0.5 -8
      vertex 1.97041 3.63042 -8
    endloop
  endfacet
  facet normal -0 0 -1
    outer loop
      vertex 1.06765 5.36765 -8
      vertex -1.5 0.5 -8
      vertex 1.06765 14.6324 -8
    endloop
  endfacet
  facet normal -0 0 -1
    outer loop
      vertex 1.16784 4.73507 -8
      vertex -1.5 0.5 -8
      vertex 1.06765 5.36765 -8
    endloop
  endfacet
  facet normal -0 0 -1
    outer loop
      vertex 1.17201 4.70871 -8
      vertex -1.5 0.5 -8
      vertex 1.16784 4.73507 -8
    endloop
  endfacet
  facet normal -0 0 -1
    outer loop
      vertex 1.18413 4.68494 -8
      vertex -1.5 0.5 -8
      vertex 1.17201 4.70871 -8
    endloop
  endfacet
  facet normal -0 0 -1
    outer loop
      vertex 1.47489 4.11428 -8
      vertex -1.5 0.5 -8
      vertex 1.18413 4.68494 -8
    endloop
  endfacet
  facet normal -0 0 -1
    outer loop
      vertex 1.49376 4.09541 -8
      vertex -1.5 0.5 -8
      vertex 1.47489 4.11428 -8
    endloop
  endfacet
  facet normal -0 0 -1
    outer loop
      vertex 1.94663 3.64254 -8
      vertex -1.5 0.5 -8
      vertex 1.49376 4.09541 -8
    endloop
  endfacet
  facet normal -0 0 -1
    outer loop
      vertex 1.97041 3.63042 -8
      vertex -1.5 0.5 -8
      vertex 1.94663 3.64254 -8
    endloop
  endfacet
  facet normal 0 0 -1
    outer loop
      vertex 5.33235 14.6324 -8
      vertex 7.9 19.5 -8
      vertex 5.33235 5.36765 -8
    endloop
  endfacet
  facet normal 0 0 -1
    outer loop
      vertex 5.23216 15.2649 -8
      vertex 7.9 19.5 -8
      vertex 5.33235 14.6324 -8
    endloop
  endfacet
  facet normal 0 0 -1
    outer loop
      vertex 5.22799 15.2913 -8
      vertex 7.9 19.5 -8
      vertex 5.23216 15.2649 -8
    endloop
  endfacet
  facet normal 0 0 -1
    outer loop
      vertex 5.21587 15.3151 -8
      vertex 7.9 19.5 -8
      vertex 5.22799 15.2913 -8
    endloop
  endfacet
  facet normal 0 0 -1
    outer loop
      vertex 4.92511 15.8857 -8
      vertex 7.9 19.5 -8
      vertex 5.21587 15.3151 -8
    endloop
  endfacet
  facet normal 0 0 -1
    outer loop
      vertex 4.90624 15.9046 -8
      vertex 7.9 19.5 -8
      vertex 4.92511 15.8857 -8
    endloop
  endfacet
  facet normal 0 0 -1
    outer loop
      vertex 4.45337 16.3575 -8
      vertex 7.9 19.5 -8
      vertex 4.90624 15.9046 -8
    endloop
  endfacet
  facet normal 0 0 -1
    outer loop
      vertex 4.42959 16.3696 -8
      vertex 7.9 19.5 -8
      vertex 4.45337 16.3575 -8
    endloop
  endfacet
  facet normal 0 0 -1
    outer loop
      vertex 3.85893 16.6603 -8
      vertex 7.9 19.5 -8
      vertex 4.42959 16.3696 -8
    endloop
  endfacet
  facet normal 0 0 -1
    outer loop
      vertex 3.22636 16.7605 -8
      vertex 7.9 19.5 -8
      vertex 3.85893 16.6603 -8
    endloop
  endfacet
  facet normal 0 0 -1
    outer loop
      vertex 3.2 16.7647 -8
      vertex 7.9 19.5 -8
      vertex 3.22636 16.7605 -8
    endloop
  endfacet
  facet normal 0 0 -1
    outer loop
      vertex -1.5 19.5 -8
      vertex 3.2 16.7647 -8
      vertex 3.17364 16.7605 -8
    endloop
  endfacet
  facet normal 0 0 -1
    outer loop
      vertex -1.5 19.5 -8
      vertex 3.17364 16.7605 -8
      vertex 2.54107 16.6603 -8
    endloop
  endfacet
  facet normal 0 0 -1
    outer loop
      vertex -1.5 19.5 -8
      vertex 2.54107 16.6603 -8
      vertex 1.97041 16.3696 -8
    endloop
  endfacet
  facet normal 0 0 -1
    outer loop
      vertex -1.5 19.5 -8
      vertex 1.97041 16.3696 -8
      vertex 1.94663 16.3575 -8
    endloop
  endfacet
  facet normal 0 0 -1
    outer loop
      vertex -1.5 19.5 -8
      vertex 1.49376 15.9046 -8
      vertex 1.47489 15.8857 -8
    endloop
  endfacet
  facet normal 0 0 -1
    outer loop
      vertex -1.5 19.5 -8
      vertex 1.18413 15.3151 -8
      vertex 1.17201 15.2913 -8
    endloop
  endfacet
  facet normal 0 0 -1
    outer loop
      vertex -1.5 19.5 -8
      vertex 1.06765 14.6324 -8
      vertex -1.5 0.5 -8
    endloop
  endfacet
  facet normal 0 0 -1
    outer loop
      vertex 1.06765 14.6324 -8
      vertex -1.5 19.5 -8
      vertex 1.16784 15.2649 -8
    endloop
  endfacet
  facet normal 0 0 -1
    outer loop
      vertex 3.2 16.7647 -8
      vertex -1.5 19.5 -8
      vertex 7.9 19.5 -8
    endloop
  endfacet
  facet normal 0 0 -1
    outer loop
      vertex 1.49376 15.9046 -8
      vertex -1.5 19.5 -8
      vertex 1.94663 16.3575 -8
    endloop
  endfacet
  facet normal 0 0 -1
    outer loop
      vertex 1.18413 15.3151 -8
      vertex -1.5 19.5 -8
      vertex 1.47489 15.8857 -8
    endloop
  endfacet
  facet normal 0 0 -1
    outer loop
      vertex 1.16784 15.2649 -8
      vertex -1.5 19.5 -8
      vertex 1.17201 15.2913 -8
    endloop
  endfacet
  facet normal 0 1 -0
    outer loop
      vertex 7.9 19.5 -8
      vertex -1.5 19.5 0
      vertex 7.9 19.5 0
    endloop
  endfacet
  facet normal 0 1 0
    outer loop
      vertex -1.5 19.5 0
      vertex 7.9 19.5 -8
      vertex -1.5 19.5 -8
    endloop
  endfacet
  facet normal -1 0 0
    outer loop
      vertex -1.5 0.5 -8
      vertex -1.5 19.5 0
      vertex -1.5 19.5 -8
    endloop
  endfacet
  facet normal -1 -0 0
    outer loop
      vertex -1.5 19.5 0
      vertex -1.5 0.5 -8
      vertex -1.5 0.5 0
    endloop
  endfacet
  facet normal 0 -1 0
    outer loop
      vertex -1.5 0.5 -8
      vertex 7.9 0.5 0
      vertex -1.5 0.5 0
    endloop
  endfacet
  facet normal 0 -1 -0
    outer loop
      vertex 7.9 0.5 0
      vertex -1.5 0.5 -8
      vertex 7.9 0.5 -8
    endloop
  endfacet
  facet normal 0 0 -1
    outer loop
      vertex 0 3.75 4.5
      vertex 6.4 16.25 4.5
      vertex 6.4 3.75 4.5
    endloop
  endfacet
  facet normal -0 0 -1
    outer loop
      vertex 6.4 16.25 4.5
      vertex 0 3.75 4.5
      vertex 0 16.25 4.5
    endloop
  endfacet
  facet normal 0 0 1
    outer loop
      vertex 6.4 16.25 0.75
      vertex 4.65 13.15 0.75
      vertex 6.4 3.75 0.75
    endloop
  endfacet
  facet normal 0 0 1
    outer loop
      vertex 6.4 16.25 0.75
      vertex 4.57903 13.5981 0.75
      vertex 4.65 13.15 0.75
    endloop
  endfacet
  facet normal 0 0 1
    outer loop
      vertex 6.4 16.25 0.75
      vertex 4.37307 14.0023 0.75
      vertex 4.57903 13.5981 0.75
    endloop
  endfacet
  facet normal 0 0 1
    outer loop
      vertex 6.4 16.25 0.75
      vertex 4.05229 14.3231 0.75
      vertex 4.37307 14.0023 0.75
    endloop
  endfacet
  facet normal 0 0 1
    outer loop
      vertex 6.4 16.25 0.75
      vertex 3.64807 14.529 0.75
      vertex 4.05229 14.3231 0.75
    endloop
  endfacet
  facet normal 0 0 1
    outer loop
      vertex 6.4 16.25 0.75
      vertex 3.2 14.6 0.75
      vertex 3.64807 14.529 0.75
    endloop
  endfacet
  facet normal -0 0 1
    outer loop
      vertex 0 16.25 0.75
      vertex 3.2 14.6 0.75
      vertex 6.4 16.25 0.75
    endloop
  endfacet
  facet normal 0 0 1
    outer loop
      vertex 1.75 13.15 0.75
      vertex 0 16.25 0.75
      vertex 1.75 6.85 0.75
    endloop
  endfacet
  facet normal 0 0 1
    outer loop
      vertex 1.82097 13.5981 0.75
      vertex 0 16.25 0.75
      vertex 1.75 13.15 0.75
    endloop
  endfacet
  facet normal 0 0 1
    outer loop
      vertex 2.02693 14.0023 0.75
      vertex 0 16.25 0.75
      vertex 1.82097 13.5981 0.75
    endloop
  endfacet
  facet normal 0 0 1
    outer loop
      vertex 2.34771 14.3231 0.75
      vertex 0 16.25 0.75
      vertex 2.02693 14.0023 0.75
    endloop
  endfacet
  facet normal 0 0 1
    outer loop
      vertex 2.75193 14.529 0.75
      vertex 0 16.25 0.75
      vertex 2.34771 14.3231 0.75
    endloop
  endfacet
  facet normal 0 0 1
    outer loop
      vertex 3.2 14.6 0.75
      vertex 0 16.25 0.75
      vertex 2.75193 14.529 0.75
    endloop
  endfacet
  facet normal -0 0 1
    outer loop
      vertex 4.65 6.85 0.75
      vertex 6.4 3.75 0.75
      vertex 4.65 13.15 0.75
    endloop
  endfacet
  facet normal -0 0 1
    outer loop
      vertex 4.57903 6.40193 0.75
      vertex 6.4 3.75 0.75
      vertex 4.65 6.85 0.75
    endloop
  endfacet
  facet normal -0 0 1
    outer loop
      vertex 4.37307 5.99771 0.75
      vertex 6.4 3.75 0.75
      vertex 4.57903 6.40193 0.75
    endloop
  endfacet
  facet normal -0 0 1
    outer loop
      vertex 4.05229 5.67693 0.75
      vertex 6.4 3.75 0.75
      vertex 4.37307 5.99771 0.75
    endloop
  endfacet
  facet normal -0 0 1
    outer loop
      vertex 3.64807 5.47097 0.75
      vertex 6.4 3.75 0.75
      vertex 4.05229 5.67693 0.75
    endloop
  endfacet
  facet normal -0 0 1
    outer loop
      vertex 3.2 5.4 0.75
      vertex 6.4 3.75 0.75
      vertex 3.64807 5.47097 0.75
    endloop
  endfacet
  facet normal 0 0 1
    outer loop
      vertex 0 3.75 0.75
      vertex 3.2 5.4 0.75
      vertex 2.75193 5.47097 0.75
    endloop
  endfacet
  facet normal 0 0 1
    outer loop
      vertex 0 3.75 0.75
      vertex 1.75 6.85 0.75
      vertex 0 16.25 0.75
    endloop
  endfacet
  facet normal 0 0 1
    outer loop
      vertex 3.2 5.4 0.75
      vertex 0 3.75 0.75
      vertex 6.4 3.75 0.75
    endloop
  endfacet
  facet normal 0 0 1
    outer loop
      vertex 2.34771 5.67693 0.75
      vertex 0 3.75 0.75
      vertex 2.75193 5.47097 0.75
    endloop
  endfacet
  facet normal 0 0 1
    outer loop
      vertex 2.02693 5.99771 0.75
      vertex 0 3.75 0.75
      vertex 2.34771 5.67693 0.75
    endloop
  endfacet
  facet normal 0 0 1
    outer loop
      vertex 1.82097 6.40193 0.75
      vertex 0 3.75 0.75
      vertex 2.02693 5.99771 0.75
    endloop
  endfacet
  facet normal 0 0 1
    outer loop
      vertex 1.75 6.85 0.75
      vertex 0 3.75 0.75
      vertex 1.82097 6.40193 0.75
    endloop
  endfacet
  facet normal 0 1 -0
    outer loop
      vertex 6.4 3.75 0.75
      vertex 0 3.75 4.5
      vertex 6.4 3.75 4.5
    endloop
  endfacet
  facet normal 0 1 0
    outer loop
      vertex 0 3.75 4.5
      vertex 6.4 3.75 0.75
      vertex 0 3.75 0.75
    endloop
  endfacet
  facet normal 0 -1 0
    outer loop
      vertex 0 16.25 0.75
      vertex 6.4 16.25 4.5
      vertex 0 16.25 4.5
    endloop
  endfacet
  facet normal 0 -1 -0
    outer loop
      vertex 6.4 16.25 4.5
      vertex 0 16.25 0.75
      vertex 6.4 16.25 0.75
    endloop
  endfacet
  facet normal -0.87864 0.447689 -0.16603
    outer loop
      vertex 5.22799 4.70871 -8
      vertex 4.37307 5.99771 0
      vertex 4.57903 6.40193 0
    endloop
  endfacet
  facet normal -0.878508 0.447939 -0.166056
    outer loop
      vertex 4.37307 5.99771 0
      vertex 5.22799 4.70871 -8
      vertex 5.21587 4.68494 -8
    endloop
  endfacet
  facet normal -0.981417 0.15544 -0.112511
    outer loop
      vertex 5.33235 5.36765 -8
      vertex 5.23216 4.73507 -8
      vertex 4.65 6.85 0
    endloop
  endfacet
  facet normal -0.878644 0.447682 -0.166028
    outer loop
      vertex 5.21587 4.68494 -8
      vertex 4.92511 4.11428 -8
      vertex 4.37307 5.99771 0
    endloop
  endfacet
  facet normal -0.981416 0.155447 -0.112513
    outer loop
      vertex 5.23216 4.73507 -8
      vertex 4.57903 6.40193 0
      vertex 4.65 6.85 0
    endloop
  endfacet
  facet normal -0.98145 0.15526 -0.112476
    outer loop
      vertex 4.57903 6.40193 0
      vertex 5.23216 4.73507 -8
      vertex 5.22799 4.70871 -8
    endloop
  endfacet
  facet normal -0.996382 0 -0.0849852
    outer loop
      vertex 5.33235 14.6324 -8
      vertex 4.65 6.85 0
      vertex 4.65 13.15 0
    endloop
  endfacet
  facet normal -0.996382 0 -0.0849852
    outer loop
      vertex 4.65 6.85 0
      vertex 5.33235 14.6324 -8
      vertex 5.33235 5.36765 -8
    endloop
  endfacet
  facet normal -0.981414 -0.155459 -0.112515
    outer loop
      vertex 5.23216 15.2649 -8
      vertex 5.33235 14.6324 -8
      vertex 4.65 13.15 0
    endloop
  endfacet
  facet normal -0.440496 0.86454 -0.241936
    outer loop
      vertex 4.42959 3.63042 -8
      vertex 3.85893 3.33966 -8
      vertex 3.64807 5.47097 0
    endloop
  endfacet
  facet normal 0.878743 -0.447494 -0.166009
    outer loop
      vertex 2.02693 14.0023 0
      vertex 1.17201 15.2913 -8
      vertex 1.18413 15.3151 -8
    endloop
  endfacet
  facet normal 0.878631 -0.447706 -0.166032
    outer loop
      vertex 1.17201 15.2913 -8
      vertex 2.02693 14.0023 0
      vertex 1.82097 13.5981 0
    endloop
  endfacet
  facet normal 0.87864 0.447689 -0.16603
    outer loop
      vertex 2.02693 5.99771 0
      vertex 1.17201 4.70871 -8
      vertex 1.82097 6.40193 0
    endloop
  endfacet
  facet normal 0.878508 0.447939 -0.166056
    outer loop
      vertex 1.17201 4.70871 -8
      vertex 2.02693 5.99771 0
      vertex 1.18413 4.68494 -8
    endloop
  endfacet
  facet normal 0.440503 0.864537 -0.241936
    outer loop
      vertex 1.97041 3.63042 -8
      vertex 2.34771 5.67693 0
      vertex 2.75193 5.47097 0
    endloop
  endfacet
  facet normal 0.440605 0.864487 -0.241928
    outer loop
      vertex 2.34771 5.67693 0
      vertex 1.97041 3.63042 -8
      vertex 1.94663 3.64254 -8
    endloop
  endfacet
  facet normal -0.691271 0.691271 -0.210446
    outer loop
      vertex 4.92511 4.11428 -8
      vertex 4.05229 5.67693 0
      vertex 4.37307 5.99771 0
    endloop
  endfacet
  facet normal -0.691271 0.691271 -0.210446
    outer loop
      vertex 4.05229 5.67693 0
      vertex 4.92511 4.11428 -8
      vertex 4.90624 4.09541 -8
    endloop
  endfacet
  facet normal -0.981491 -0.155031 -0.112431
    outer loop
      vertex 5.23216 15.2649 -8
      vertex 4.57903 13.5981 0
      vertex 5.22799 15.2913 -8
    endloop
  endfacet
  facet normal -0.981418 -0.155437 -0.112509
    outer loop
      vertex 4.57903 13.5981 0
      vertex 5.23216 15.2649 -8
      vertex 4.65 13.15 0
    endloop
  endfacet
  facet normal -0.691295 -0.691249 -0.210443
    outer loop
      vertex 4.45337 16.3575 -8
      vertex 4.90624 15.9046 -8
      vertex 4.05229 14.3231 0
    endloop
  endfacet
  facet normal 0.996382 0 -0.0849852
    outer loop
      vertex 1.75 6.85 0
      vertex 1.06765 14.6324 -8
      vertex 1.75 13.15 0
    endloop
  endfacet
  facet normal 0.996382 0 -0.0849852
    outer loop
      vertex 1.06765 14.6324 -8
      vertex 1.75 6.85 0
      vertex 1.06765 5.36765 -8
    endloop
  endfacet
  facet normal 0.981417 0.15544 -0.112511
    outer loop
      vertex 1.75 6.85 0
      vertex 1.16784 4.73507 -8
      vertex 1.06765 5.36765 -8
    endloop
  endfacet
  facet normal 0.981416 0.155447 -0.112513
    outer loop
      vertex 1.82097 6.40193 0
      vertex 1.16784 4.73507 -8
      vertex 1.75 6.85 0
    endloop
  endfacet
  facet normal 0.98145 0.15526 -0.112476
    outer loop
      vertex 1.16784 4.73507 -8
      vertex 1.82097 6.40193 0
      vertex 1.17201 4.70871 -8
    endloop
  endfacet
  facet normal -0.691271 0.691271 -0.210446
    outer loop
      vertex 4.90624 4.09541 -8
      vertex 4.45337 3.64254 -8
      vertex 4.05229 5.67693 0
    endloop
  endfacet
  facet normal 0.691295 -0.691249 -0.210443
    outer loop
      vertex 1.94663 16.3575 -8
      vertex 2.34771 14.3231 0
      vertex 1.49376 15.9046 -8
    endloop
  endfacet
  facet normal 0.878624 -0.447719 -0.166034
    outer loop
      vertex 1.47489 15.8857 -8
      vertex 2.02693 14.0023 0
      vertex 1.18413 15.3151 -8
    endloop
  endfacet
  facet normal -0.152014 -0.954068 -0.258159
    outer loop
      vertex 3.22636 16.7605 -8
      vertex 3.2 14.6 0
      vertex 3.2 16.7647 -8
    endloop
  endfacet
  facet normal -0.151198 -0.954189 -0.258189
    outer loop
      vertex 3.2 14.6 0
      vertex 3.22636 16.7605 -8
      vertex 3.64807 14.529 0
    endloop
  endfacet
  facet normal 0.440424 -0.864576 -0.241942
    outer loop
      vertex 2.54107 16.6603 -8
      vertex 2.75193 14.529 0
      vertex 1.97041 16.3696 -8
    endloop
  endfacet
  facet normal -0.440424 -0.864576 -0.241942
    outer loop
      vertex 3.85893 16.6603 -8
      vertex 4.42959 16.3696 -8
      vertex 3.64807 14.529 0
    endloop
  endfacet
  facet normal 0.981491 -0.155031 -0.112431
    outer loop
      vertex 1.82097 13.5981 0
      vertex 1.16784 15.2649 -8
      vertex 1.17201 15.2913 -8
    endloop
  endfacet
  facet normal 0.981418 -0.155437 -0.112509
    outer loop
      vertex 1.16784 15.2649 -8
      vertex 1.82097 13.5981 0
      vertex 1.75 13.15 0
    endloop
  endfacet
  facet normal 0.981414 -0.155459 -0.112515
    outer loop
      vertex 1.16784 15.2649 -8
      vertex 1.75 13.15 0
      vertex 1.06765 14.6324 -8
    endloop
  endfacet
  facet normal 0.878644 0.447682 -0.166028
    outer loop
      vertex 2.02693 5.99771 0
      vertex 1.47489 4.11428 -8
      vertex 1.18413 4.68494 -8
    endloop
  endfacet
  facet normal -0.151131 0.954198 -0.258195
    outer loop
      vertex 3.64807 5.47097 0
      vertex 3.85893 3.33966 -8
      vertex 3.22636 3.23947 -8
    endloop
  endfacet
  facet normal -0.440605 0.864487 -0.241928
    outer loop
      vertex 4.42959 3.63042 -8
      vertex 4.05229 5.67693 0
      vertex 4.45337 3.64254 -8
    endloop
  endfacet
  facet normal -0.440503 0.864537 -0.241936
    outer loop
      vertex 4.05229 5.67693 0
      vertex 4.42959 3.63042 -8
      vertex 3.64807 5.47097 0
    endloop
  endfacet
  facet normal 0.691828 -0.69073 -0.210397
    outer loop
      vertex 2.34771 14.3231 0
      vertex 1.47489 15.8857 -8
      vertex 1.49376 15.9046 -8
    endloop
  endfacet
  facet normal 0.691294 -0.691251 -0.21044
    outer loop
      vertex 1.47489 15.8857 -8
      vertex 2.34771 14.3231 0
      vertex 2.02693 14.0023 0
    endloop
  endfacet
  facet normal 0.151198 -0.954189 -0.258189
    outer loop
      vertex 3.17364 16.7605 -8
      vertex 3.2 14.6 0
      vertex 2.75193 14.529 0
    endloop
  endfacet
  facet normal 0.152014 -0.954068 -0.258159
    outer loop
      vertex 3.2 14.6 0
      vertex 3.17364 16.7605 -8
      vertex 3.2 16.7647 -8
    endloop
  endfacet
  facet normal 0.151146 -0.954196 -0.258194
    outer loop
      vertex 3.17364 16.7605 -8
      vertex 2.75193 14.529 0
      vertex 2.54107 16.6603 -8
    endloop
  endfacet
  facet normal -0.4404 -0.864587 -0.241943
    outer loop
      vertex 4.42959 16.3696 -8
      vertex 4.05229 14.3231 0
      vertex 3.64807 14.529 0
    endloop
  endfacet
  facet normal -0.440023 -0.864772 -0.241972
    outer loop
      vertex 4.05229 14.3231 0
      vertex 4.42959 16.3696 -8
      vertex 4.45337 16.3575 -8
    endloop
  endfacet
  facet normal -0.151146 -0.954196 -0.258194
    outer loop
      vertex 3.85893 16.6603 -8
      vertex 3.64807 14.529 0
      vertex 3.22636 16.7605 -8
    endloop
  endfacet
  facet normal 0.151131 0.954198 -0.258195
    outer loop
      vertex 2.75193 5.47097 0
      vertex 3.17364 3.23947 -8
      vertex 2.54107 3.33966 -8
    endloop
  endfacet
  facet normal 0.440496 0.86454 -0.241936
    outer loop
      vertex 2.75193 5.47097 0
      vertex 2.54107 3.33966 -8
      vertex 1.97041 3.63042 -8
    endloop
  endfacet
  facet normal 0.151307 0.954172 -0.258188
    outer loop
      vertex 3.17364 3.23947 -8
      vertex 3.2 5.4 0
      vertex 3.2 3.23529 -8
    endloop
  endfacet
  facet normal 0.151136 0.954198 -0.258195
    outer loop
      vertex 3.2 5.4 0
      vertex 3.17364 3.23947 -8
      vertex 2.75193 5.47097 0
    endloop
  endfacet
  facet normal -0.151136 0.954198 -0.258195
    outer loop
      vertex 3.22636 3.23947 -8
      vertex 3.2 5.4 0
      vertex 3.64807 5.47097 0
    endloop
  endfacet
  facet normal -0.151307 0.954172 -0.258188
    outer loop
      vertex 3.2 5.4 0
      vertex 3.22636 3.23947 -8
      vertex 3.2 3.23529 -8
    endloop
  endfacet
  facet normal 0.440023 -0.864772 -0.241972
    outer loop
      vertex 1.97041 16.3696 -8
      vertex 2.34771 14.3231 0
      vertex 1.94663 16.3575 -8
    endloop
  endfacet
  facet normal 0.4404 -0.864587 -0.241943
    outer loop
      vertex 2.34771 14.3231 0
      vertex 1.97041 16.3696 -8
      vertex 2.75193 14.529 0
    endloop
  endfacet
  facet normal -0.878743 -0.447494 -0.166009
    outer loop
      vertex 5.22799 15.2913 -8
      vertex 4.37307 14.0023 0
      vertex 5.21587 15.3151 -8
    endloop
  endfacet
  facet normal -0.878631 -0.447706 -0.166032
    outer loop
      vertex 4.37307 14.0023 0
      vertex 5.22799 15.2913 -8
      vertex 4.57903 13.5981 0
    endloop
  endfacet
  facet normal 0.691271 0.691271 -0.210446
    outer loop
      vertex 2.34771 5.67693 0
      vertex 1.47489 4.11428 -8
      vertex 2.02693 5.99771 0
    endloop
  endfacet
  facet normal 0.691271 0.691271 -0.210446
    outer loop
      vertex 1.47489 4.11428 -8
      vertex 2.34771 5.67693 0
      vertex 1.49376 4.09541 -8
    endloop
  endfacet
  facet normal 0.691271 0.691271 -0.210446
    outer loop
      vertex 2.34771 5.67693 0
      vertex 1.94663 3.64254 -8
      vertex 1.49376 4.09541 -8
    endloop
  endfacet
  facet normal -0.878624 -0.447719 -0.166034
    outer loop
      vertex 4.92511 15.8857 -8
      vertex 5.21587 15.3151 -8
      vertex 4.37307 14.0023 0
    endloop
  endfacet
  facet normal -0.691828 -0.69073 -0.210397
    outer loop
      vertex 4.92511 15.8857 -8
      vertex 4.05229 14.3231 0
      vertex 4.90624 15.9046 -8
    endloop
  endfacet
  facet normal -0.691294 -0.691251 -0.21044
    outer loop
      vertex 4.05229 14.3231 0
      vertex 4.92511 15.8857 -8
      vertex 4.37307 14.0023 0
    endloop
  endfacet
  facet normal 0.891007 0.45399 0
    outer loop
      vertex 2.02693 5.99771 0.75
      vertex 1.82097 6.40193 0
      vertex 1.82097 6.40193 0.75
    endloop
  endfacet
  facet normal 0.891007 0.45399 0
    outer loop
      vertex 1.82097 6.40193 0
      vertex 2.02693 5.99771 0.75
      vertex 2.02693 5.99771 0
    endloop
  endfacet
  facet normal 1 -0 0
    outer loop
      vertex 1.75 6.85 0.75
      vertex 1.75 13.15 0
      vertex 1.75 13.15 0.75
    endloop
  endfacet
  facet normal 1 0 0
    outer loop
      vertex 1.75 13.15 0
      vertex 1.75 6.85 0.75
      vertex 1.75 6.85 0
    endloop
  endfacet
  facet normal -0.987689 -0.15643 0
    outer loop
      vertex 4.65 13.15 0
      vertex 4.57903 13.5981 0.75
      vertex 4.57903 13.5981 0
    endloop
  endfacet
  facet normal -0.987689 -0.15643 0
    outer loop
      vertex 4.57903 13.5981 0.75
      vertex 4.65 13.15 0
      vertex 4.65 13.15 0.75
    endloop
  endfacet
  facet normal 0.987687 0.15644 0
    outer loop
      vertex 1.82097 6.40193 0.75
      vertex 1.75 6.85 0
      vertex 1.75 6.85 0.75
    endloop
  endfacet
  facet normal 0.987687 0.15644 0
    outer loop
      vertex 1.75 6.85 0
      vertex 1.82097 6.40193 0.75
      vertex 1.82097 6.40193 0
    endloop
  endfacet
  facet normal -0.15644 0.987687 0
    outer loop
      vertex 3.64807 5.47097 0
      vertex 3.2 5.4 0.75
      vertex 3.64807 5.47097 0.75
    endloop
  endfacet
  facet normal -0.15644 0.987687 0
    outer loop
      vertex 3.2 5.4 0.75
      vertex 3.64807 5.47097 0
      vertex 3.2 5.4 0
    endloop
  endfacet
  facet normal 0.156505 -0.987677 0
    outer loop
      vertex 2.75193 14.529 0
      vertex 3.2 14.6 0.75
      vertex 2.75193 14.529 0.75
    endloop
  endfacet
  facet normal 0.156505 -0.987677 0
    outer loop
      vertex 3.2 14.6 0.75
      vertex 2.75193 14.529 0
      vertex 3.2 14.6 0
    endloop
  endfacet
  facet normal 0.987689 -0.15643 0
    outer loop
      vertex 1.75 13.15 0.75
      vertex 1.82097 13.5981 0
      vertex 1.82097 13.5981 0.75
    endloop
  endfacet
  facet normal 0.987689 -0.15643 0
    outer loop
      vertex 1.82097 13.5981 0
      vertex 1.75 13.15 0.75
      vertex 1.75 13.15 0
    endloop
  endfacet
  facet normal -0.987687 0.15644 0
    outer loop
      vertex 4.57903 6.40193 0
      vertex 4.65 6.85 0.75
      vertex 4.65 6.85 0
    endloop
  endfacet
  facet normal -0.987687 0.15644 0
    outer loop
      vertex 4.65 6.85 0.75
      vertex 4.57903 6.40193 0
      vertex 4.57903 6.40193 0.75
    endloop
  endfacet
  facet normal -1 0 0
    outer loop
      vertex 4.65 6.85 0
      vertex 4.65 13.15 0.75
      vertex 4.65 13.15 0
    endloop
  endfacet
  facet normal -1 -0 0
    outer loop
      vertex 4.65 13.15 0.75
      vertex 4.65 6.85 0
      vertex 4.65 6.85 0.75
    endloop
  endfacet
  facet normal -0.45399 0.891007 0
    outer loop
      vertex 4.05229 5.67693 0
      vertex 3.64807 5.47097 0.75
      vertex 4.05229 5.67693 0.75
    endloop
  endfacet
  facet normal -0.45399 0.891007 0
    outer loop
      vertex 3.64807 5.47097 0.75
      vertex 4.05229 5.67693 0
      vertex 3.64807 5.47097 0
    endloop
  endfacet
  facet normal 0.45399 0.891007 -0
    outer loop
      vertex 2.75193 5.47097 0
      vertex 2.34771 5.67693 0.75
      vertex 2.75193 5.47097 0.75
    endloop
  endfacet
  facet normal 0.45399 0.891007 0
    outer loop
      vertex 2.34771 5.67693 0.75
      vertex 2.75193 5.47097 0
      vertex 2.34771 5.67693 0
    endloop
  endfacet
  facet normal -0.890998 -0.454008 0
    outer loop
      vertex 4.57903 13.5981 0
      vertex 4.37307 14.0023 0.75
      vertex 4.37307 14.0023 0
    endloop
  endfacet
  facet normal -0.890998 -0.454008 0
    outer loop
      vertex 4.37307 14.0023 0.75
      vertex 4.57903 13.5981 0
      vertex 4.57903 13.5981 0.75
    endloop
  endfacet
  facet normal 0.453885 -0.89106 0
    outer loop
      vertex 2.34771 14.3231 0
      vertex 2.75193 14.529 0.75
      vertex 2.34771 14.3231 0.75
    endloop
  endfacet
  facet normal 0.453885 -0.89106 0
    outer loop
      vertex 2.75193 14.529 0.75
      vertex 2.34771 14.3231 0
      vertex 2.75193 14.529 0
    endloop
  endfacet
  facet normal 0.890998 -0.454008 0
    outer loop
      vertex 1.82097 13.5981 0.75
      vertex 2.02693 14.0023 0
      vertex 2.02693 14.0023 0.75
    endloop
  endfacet
  facet normal 0.890998 -0.454008 0
    outer loop
      vertex 2.02693 14.0023 0
      vertex 1.82097 13.5981 0.75
      vertex 1.82097 13.5981 0
    endloop
  endfacet
  facet normal 0.15644 0.987687 -0
    outer loop
      vertex 3.2 5.4 0
      vertex 2.75193 5.47097 0.75
      vertex 3.2 5.4 0.75
    endloop
  endfacet
  facet normal 0.15644 0.987687 0
    outer loop
      vertex 2.75193 5.47097 0.75
      vertex 3.2 5.4 0
      vertex 2.75193 5.47097 0
    endloop
  endfacet
  facet normal 0.707107 0.707107 0
    outer loop
      vertex 2.34771 5.67693 0.75
      vertex 2.02693 5.99771 0
      vertex 2.02693 5.99771 0.75
    endloop
  endfacet
  facet normal 0.707107 0.707107 0
    outer loop
      vertex 2.02693 5.99771 0
      vertex 2.34771 5.67693 0.75
      vertex 2.34771 5.67693 0
    endloop
  endfacet
  facet normal -0.707107 0.707107 0
    outer loop
      vertex 4.05229 5.67693 0
      vertex 4.37307 5.99771 0.75
      vertex 4.37307 5.99771 0
    endloop
  endfacet
  facet normal -0.707107 0.707107 0
    outer loop
      vertex 4.37307 5.99771 0.75
      vertex 4.05229 5.67693 0
      vertex 4.05229 5.67693 0.75
    endloop
  endfacet
  facet normal -0.891007 0.45399 0
    outer loop
      vertex 4.37307 5.99771 0
      vertex 4.57903 6.40193 0.75
      vertex 4.57903 6.40193 0
    endloop
  endfacet
  facet normal -0.891007 0.45399 0
    outer loop
      vertex 4.57903 6.40193 0.75
      vertex 4.37307 5.99771 0
      vertex 4.37307 5.99771 0.75
    endloop
  endfacet
  facet normal -0.156505 -0.987677 0
    outer loop
      vertex 3.2 14.6 0
      vertex 3.64807 14.529 0.75
      vertex 3.2 14.6 0.75
    endloop
  endfacet
  facet normal -0.156505 -0.987677 -0
    outer loop
      vertex 3.64807 14.529 0.75
      vertex 3.2 14.6 0
      vertex 3.64807 14.529 0
    endloop
  endfacet
  facet normal -0.453885 -0.89106 0
    outer loop
      vertex 3.64807 14.529 0
      vertex 4.05229 14.3231 0.75
      vertex 3.64807 14.529 0.75
    endloop
  endfacet
  facet normal -0.453885 -0.89106 -0
    outer loop
      vertex 4.05229 14.3231 0.75
      vertex 3.64807 14.529 0
      vertex 4.05229 14.3231 0
    endloop
  endfacet
  facet normal -0.707129 -0.707085 0
    outer loop
      vertex 4.37307 14.0023 0
      vertex 4.05229 14.3231 0.75
      vertex 4.05229 14.3231 0
    endloop
  endfacet
  facet normal -0.707129 -0.707085 0
    outer loop
      vertex 4.05229 14.3231 0.75
      vertex 4.37307 14.0023 0
      vertex 4.37307 14.0023 0.75
    endloop
  endfacet
  facet normal 0.707129 -0.707085 0
    outer loop
      vertex 2.02693 14.0023 0.75
      vertex 2.34771 14.3231 0
      vertex 2.34771 14.3231 0.75
    endloop
  endfacet
  facet normal 0.707129 -0.707085 0
    outer loop
      vertex 2.34771 14.3231 0
      vertex 2.02693 14.0023 0.75
      vertex 2.02693 14.0023 0
    endloop
  endfacet
endsolid OpenSCAD_Model
